<svg width="14" height="14" viewBox="0 0 14 14" fill="none" xmlns="http://www.w3.org/2000/svg">
<path d="M10.2803 6.03033C10.5732 5.73744 10.5732 5.26256 10.2803 4.96967C9.98744 4.67678 9.51256 4.67678 9.21967 4.96967L6.25 7.93934L5.03033 6.71967C4.73744 6.42678 4.26256 6.42678 3.96967 6.71967C3.67678 7.01256 3.67678 7.48744 3.96967 7.78033L5.71967 9.53033C6.01256 9.82322 6.48744 9.82322 6.78033 9.53033L10.2803 6.03033Z" fill="#616161"/>
<path fill-rule="evenodd" clip-rule="evenodd" d="M14 7C14 10.866 10.866 14 7 14C3.13401 14 0 10.866 0 7C0 3.13401 3.13401 0 7 0C10.866 0 14 3.13401 14 7ZM12.5 7C12.5 10.0376 10.0376 12.5 7 12.5C3.96243 12.5 1.5 10.0376 1.5 7C1.5 3.96243 3.96243 1.5 7 1.5C10.0376 1.5 12.5 3.96243 12.5 7Z" fill="#616161"/>
</svg>
