<svg width="14" height="10" viewBox="0 0 14 10" fill="none" xmlns="http://www.w3.org/2000/svg">
<path d="M0 1C0 0.585786 0.335786 0.25 0.75 0.25H13.25C13.6642 0.25 14 0.585786 14 1C14 1.41421 13.6642 1.75 13.25 1.75H0.75C0.335786 1.75 0 1.41421 0 1Z" fill="#616161"/>
<path d="M3.75 9C3.75 8.58579 4.08579 8.25 4.5 8.25H9.5C9.91421 8.25 10.25 8.58579 10.25 9C10.25 9.41421 9.91421 9.75 9.5 9.75H4.5C4.08579 9.75 3.75 9.41421 3.75 9Z" fill="#616161"/>
<path d="M2.5 4.25C2.08579 4.25 1.75 4.58579 1.75 5C1.75 5.41421 2.08579 5.75 2.5 5.75H11.5C11.9142 5.75 12.25 5.41421 12.25 5C12.25 4.58579 11.9142 4.25 11.5 4.25H2.5Z" fill="#616161"/>
</svg>
