<svg width="14" height="14" viewBox="0 0 14 14" fill="none" xmlns="http://www.w3.org/2000/svg">
<path fill-rule="evenodd" clip-rule="evenodd" d="M10.257 0H3.74302C3.35944 0 2.9971 0.17611 2.76012 0.477723L0.373943 3.51468C0.131688 3.823 0 4.20375 0 4.59586V5.25C0 6.31867 0.609581 7.24497 1.5 7.70015V12.25C1.5 13.2165 2.2835 14 3.25 14H10.75C11.7165 14 12.5 13.2165 12.5 12.25V7.70015C13.3904 7.24497 14 6.31867 14 5.25V4.76879C14 4.26465 13.8307 3.77511 13.5192 3.3787L11.2399 0.477723C11.0029 0.17611 10.6406 0 10.257 0ZM10 12.5H10.75C10.8881 12.5 11 12.3881 11 12.25V8C10.212 8 9.50138 7.66855 9 7.13747C8.49861 7.66855 7.78802 8 7 8C6.21199 8 5.50138 7.66856 5 7.13747C4.49862 7.66856 3.78801 8 3 8V12.25C3 12.3881 3.11193 12.5 3.25 12.5H7V10C7 9.44772 7.44772 9 8 9H9C9.55228 9 10 9.44771 10 10V12.5ZM3 6.5H2.75C2.05964 6.5 1.5 5.94036 1.5 5.25V4.59586C1.5 4.53985 1.51881 4.48545 1.55342 4.44141L3.86453 1.5H10.1355L12.3397 4.30543C12.4436 4.43757 12.5 4.60075 12.5 4.76879V5.25C12.5 5.94036 11.9404 6.5 11.25 6.5H11C10.3096 6.5 9.75 5.94036 9.75 5.25V4.75C9.75 4.33579 9.41421 4 9 4C8.58579 4 8.25 4.33579 8.25 4.75V5.25C8.25 5.94036 7.69036 6.5 7 6.5C6.30964 6.5 5.75 5.94036 5.75 5.25V4.75C5.75 4.33579 5.41421 4 5 4C4.58579 4 4.25 4.33579 4.25 4.75V5.25C4.25 5.94036 3.69036 6.5 3 6.5Z" fill="#303030"/>
</svg>
